<?xml version="1.0" standalone="no"?>
<!DOCTYPE svg PUBLIC "-//W3C//DTD SVG 20010904//EN"
 "http://www.w3.org/TR/2001/REC-SVG-20010904/DTD/svg10.dtd">
<svg version="1.0" xmlns="http://www.w3.org/2000/svg"
 width="1200.000000pt" height="838.000000pt" viewBox="0 0 1200.000000 838.000000"
 preserveAspectRatio="xMidYMid meet">
<metadata>
Created by potrace 1.16, written by Peter Selinger 2001-2019
</metadata>
<g transform="translate(0.000000,838.000000) scale(0.100000,-0.100000)"
fill="#000000" stroke="none">
<path d="M0 4190 l0 -4190 6000 0 6000 0 0 4190 0 4190 -6000 0 -6000 0 0
-4190z m6292 3405 c294 -28 417 -49 618 -107 486 -140 988 -433 1350 -789 123
-122 183 -203 263 -358 77 -150 134 -319 150 -450 l12 -95 33 -10 c18 -5 51
-25 73 -45 59 -52 80 -132 86 -326 7 -191 -7 -312 -44 -385 -23 -45 -41 -64
-101 -103 -70 -47 -72 -50 -72 -90 0 -58 -38 -283 -54 -322 -28 -66 -96 -108
-221 -137 -46 -10 -114 -17 -160 -17 -66 1 -86 -2 -118 -21 -33 -20 -48 -22
-116 -18 -98 6 -133 27 -155 96 -33 100 -38 243 -38 1032 1 426 1 783 1 793 1
35 54 74 116 87 73 15 123 2 159 -40 21 -26 32 -30 73 -30 66 0 169 -26 222
-55 24 -14 45 -25 47 -25 22 0 -97 213 -179 321 -187 248 -521 475 -809 550
-89 23 -101 20 -185 -52 -52 -46 -99 -69 -137 -69 -13 0 -64 13 -113 30 -214
73 -690 140 -993 140 -304 0 -788 -68 -991 -140 -46 -16 -97 -30 -112 -30 -41
0 -87 22 -140 69 -84 72 -96 75 -185 52 -153 -40 -347 -138 -516 -260 -97 -70
-240 -213 -307 -307 -56 -77 -169 -275 -169 -294 0 -14 2 -13 51 15 53 29 156
55 222 55 41 0 52 4 73 30 36 42 86 55 159 40 62 -13 114 -52 116 -87 0 -10 1
-367 1 -793 0 -788 -5 -933 -38 -1032 -22 -69 -57 -90 -155 -96 -68 -4 -83 -2
-116 18 -32 19 -52 22 -118 21 -46 0 -114 7 -160 17 -125 29 -193 71 -221 137
-16 39 -54 264 -54 322 0 40 -2 43 -72 90 -60 39 -78 58 -101 103 -37 73 -51
194 -44 385 6 194 27 274 86 326 22 20 55 40 73 45 l33 10 12 95 c23 190 143
480 267 645 68 92 214 234 363 354 479 387 1059 637 1603 690 63 6 149 15 190
19 126 14 371 12 542 -4z m213 -600 c380 -57 723 -228 966 -482 60 -62 164
-221 180 -275 31 -102 79 -294 93 -367 17 -90 21 -346 6 -436 -35 -223 -41
-275 -38 -348 3 -45 12 -108 21 -140 35 -119 14 -288 -52 -422 -38 -77 -227
-286 -330 -365 -39 -30 -74 -64 -76 -75 -3 -11 -11 -63 -20 -115 -20 -131 -51
-227 -82 -256 -51 -47 -164 -59 -222 -23 -33 20 -35 20 -44 2 -26 -44 -102
-113 -150 -133 -44 -19 -63 -22 -130 -17 -49 3 -93 13 -119 26 l-42 21 -36
-34 c-80 -77 -195 -110 -296 -86 -45 11 -63 22 -92 55 l-36 42 -21 -30 c-33
-49 -88 -72 -175 -72 -89 0 -167 32 -222 90 l-34 36 -49 -23 c-40 -18 -68 -22
-141 -23 -90 0 -92 1 -148 39 -31 22 -71 59 -88 82 l-31 44 -33 -21 c-54 -33
-161 -23 -217 21 -39 31 -66 118 -97 317 l-12 72 -66 54 c-83 67 -226 212
-287 292 -56 71 -69 101 -102 225 -29 113 -27 208 6 307 26 78 26 145 0 298
-33 197 -41 293 -35 425 6 140 18 204 76 416 37 133 47 157 112 261 60 96 87
129 167 200 302 266 658 411 1071 433 213 12 705 3 825 -15z m-1254 -3574 c24
-15 55 -40 68 -54 l24 -26 40 34 c77 66 168 52 255 -37 l37 -37 25 23 c39 36
64 46 122 46 60 0 95 -18 150 -74 l34 -35 40 40 c53 55 83 69 149 69 59 0 98
-15 128 -48 19 -21 19 -21 48 13 33 38 120 85 156 85 34 0 89 -25 118 -54 l25
-25 31 30 c16 16 48 41 70 56 35 23 46 25 102 21 76 -6 141 -37 168 -81 17
-27 20 -43 15 -104 -5 -59 -14 -89 -50 -162 -60 -121 -93 -161 -209 -248 -103
-77 -228 -142 -310 -162 -178 -43 -818 -40 -976 5 -130 37 -322 160 -414 265
-72 82 -128 207 -135 296 -7 107 15 145 106 178 65 24 132 19 183 -14z m-3911
-1611 l0 -300 140 0 c271 0 272 0 450 345 l129 250 130 3 c72 1 131 -1 131 -6
0 -20 -246 -491 -286 -548 -43 -61 -90 -103 -138 -125 -14 -7 -26 -15 -26 -18
0 -3 20 -14 45 -24 91 -38 142 -99 247 -297 37 -69 193 -374 206 -402 2 -5
-59 -8 -136 -8 l-139 0 -124 242 c-134 262 -173 317 -244 338 -22 7 -118 14
-212 17 l-173 6 0 -302 0 -301 -125 0 -125 0 0 715 0 715 125 0 125 0 0 -300z
m1700 -200 c0 -539 0 -542 53 -598 65 -70 141 -82 499 -82 l288 0 0 -126 0
-126 -347 5 c-283 3 -359 7 -406 20 -180 52 -289 164 -326 335 -7 35 -11 222
-11 562 l0 510 125 0 125 0 0 -500z m2297 471 c64 -28 124 -91 148 -154 13
-36 17 -66 13 -129 -6 -117 -43 -186 -240 -453 -90 -122 -236 -321 -326 -443
l-163 -222 -155 0 c-85 0 -154 3 -154 7 0 4 8 16 19 27 37 42 719 972 735
1003 9 18 16 41 16 53 0 29 -26 76 -45 84 -9 3 -221 6 -471 6 l-454 0 0 125 0
126 513 -3 512 -3 52 -24z m923 -271 l0 -300 148 0 c174 0 235 14 285 63 18
19 86 138 162 285 l130 252 133 0 c74 0 132 -3 130 -8 -1 -4 -63 -126 -137
-270 -142 -281 -187 -344 -277 -397 l-45 -27 58 -28 c62 -30 109 -70 153 -135
28 -40 275 -514 286 -547 5 -17 -6 -18 -129 -18 -96 0 -137 4 -144 13 -6 6
-58 107 -117 223 -58 116 -119 231 -136 255 -56 85 -136 109 -362 109 l-138 0
0 -300 0 -301 -122 3 -123 3 -3 713 -2 712 125 0 125 0 0 -300z m1712 -217 l3
-518 23 -40 c49 -85 109 -104 329 -105 229 0 293 20 343 110 l25 45 3 513 3
512 120 0 119 0 0 -524 c0 -310 -4 -545 -10 -576 -31 -161 -136 -270 -300
-311 -88 -22 -535 -19 -618 3 -150 42 -237 130 -278 283 -11 39 -14 168 -14
588 l0 537 125 0 124 0 3 -517z m1918 217 c107 -165 198 -300 202 -300 4 0 96
135 205 300 l198 300 148 0 148 0 -22 -32 c-13 -18 -78 -109 -144 -203 -67
-93 -185 -261 -263 -371 l-142 -202 -2 -308 -3 -309 -122 -3 -123 -3 -1 298
c-1 164 -2 304 -3 310 0 7 -128 192 -283 412 -156 220 -283 402 -283 405 0 3
66 6 148 6 l147 -1 195 -299z"/>
<path d="M5014 5711 c-89 -22 -152 -58 -230 -133 -76 -73 -106 -127 -138 -252
-41 -155 -33 -289 17 -314 12 -6 83 -13 157 -15 213 -8 374 -54 507 -146 38
-26 77 -51 87 -54 46 -18 167 96 220 206 47 97 66 176 66 272 -1 98 -12 150
-51 232 -33 68 -92 119 -196 169 -113 53 -303 68 -439 35z"/>
<path d="M6685 5714 c-83 -16 -193 -68 -254 -120 -55 -47 -98 -141 -113 -244
-23 -153 35 -345 138 -459 57 -63 99 -93 129 -93 13 0 61 24 107 54 146 97
285 137 503 145 169 6 177 9 194 78 15 61 14 107 -8 205 -27 120 -56 192 -102
250 -44 55 -142 133 -199 156 -101 43 -263 54 -395 28z"/>
<path d="M5907 4781 c-28 -33 -57 -147 -57 -220 0 -77 61 -121 94 -68 25 40
47 257 30 301 -10 25 -40 19 -67 -13z"/>
<path d="M6044 4795 c-8 -19 2 -234 12 -278 16 -68 96 -53 109 20 8 49 -26
207 -53 242 -23 31 -59 39 -68 16z"/>
</g>
</svg>
